<?xml version="1.0" encoding="utf-8"?>
<!-- Generator: Adobe Illustrator 15.1.0, SVG Export Plug-In . SVG Version: 6.00 Build 0)  -->
<!DOCTYPE svg PUBLIC "-//W3C//DTD SVG 1.1//EN" "http://www.w3.org/Graphics/SVG/1.1/DTD/svg11.dtd">
<svg version="1.1" id="Layer_1" xmlns="http://www.w3.org/2000/svg" xmlns:xlink="http://www.w3.org/1999/xlink" x="0px" y="0px"
	 width="792px" height="612px" viewBox="0 0 792 612" enable-background="new 0 0 792 612" xml:space="preserve">
<path fill="#8e8e8e" fill-rule="evenodd" clip-rule="evenodd" stroke="#8e8e8e" stroke-width="3" stroke-linejoin="round" stroke-miterlimit="22.9256" d="
	M522.85,242.958c-18.611,0.182-40.428-6.68-61.31-12.836c-20.883-6.154-40.832-11.601-65.344-8.659
	c-24.512,2.942-53.584,14.27-79.763,35.499c-26.179,21.23-49.465,52.359-66.562,77.543s-28.004,44.426-45.53,59.561
	c-17.526,15.136-41.669,26.166-65.958,33.046c-24.29,6.879-48.725,9.605-68.785,10.97s-35.748,1.364-32.723,7.537
	c3.025,6.174,24.761,18.519,58.097,21.461c33.335,2.941,78.269-3.522,114.424-16.162c36.154-12.639,63.529-31.453,81.138-38.655
	c17.609-7.201,25.453-2.79,28.15,6.033c2.695,8.825,0.244,22.062,1.47,30.15c1.225,8.089,6.127,11.03,17.634,11.058
	c11.507,0.027,29.618-2.859,45.25-4.503c15.63-1.643,28.781-2.043,40.07-1.825c11.288,0.218,20.717,1.054,23.715-3.431
	c2.997-4.484-0.435-14.29-7.053-20.418c-6.618-6.127-16.423-8.578-27.452-8.334c-11.03,0.246-23.287,3.188-25.982,1.961
	c-2.696-1.225,4.167-6.617,15.32-17.018c11.152-10.401,26.595-25.81,49.453-29.347c22.855-3.537,53.129,4.796,71.618,13.438
	s25.194,17.592,31,26.479c5.804,8.887,10.705,17.71,16.461,22.909c5.754,5.201,12.362,6.774,21.217,7.203s19.955-0.288,28.908-1.076
	c8.952-0.787,15.754-1.645,17.653-6.578c1.9-4.933-1.103-13.94-9.191-18.844c-8.088-4.902-21.263-5.698-28.83-8.547
	c-7.568-2.85-9.53-7.751-7.568-14.615c1.961-6.862,7.843-15.687,16.423-24.021c8.579-8.334,19.854-16.177,30.64-26.227
	c10.784-10.05,21.079-22.306,26.963-37.993c5.36-14.296,7.056-31.44,7.687-46.428c1.506-6.883,4.196-12.217,9.612-14.973
	c6.986-3.554,18.507-2.818,29.047-4.657c10.54-1.839,20.1-6.25,26.963-11.153c6.862-4.902,11.029-10.295,13.603-14.83
	s3.555-8.211,3.065-10.907c-0.491-2.697-2.452-4.413-6.986-8.457c-4.534-4.046-11.644-10.418-18.262-16.178
	c-6.618-5.761-12.746-10.908-19.118-14.339c-5.994-3.228-12.206-4.938-20.773-7.372c-1.09-3.092-2.685-6.058-4.351-8.315
	c-3.8-5.148-7.968-6.618-13.4-5.576c-4.601,0.881-10.106,3.564-13.745,6.869c-3.369-2.789-8.095-5.646-13.275-5.793
	c-5.651-0.161-11.846,2.905-15.313,6.288c-3.302,3.222-4.128,6.731-3.034,9.6c-4.9,2.934-9.803,6.659-14.646,11.286
	C583.104,202.797,578.288,242.417,522.85,242.958z"/>
</svg>
